# AST/ASF file generated using VICON BodyLanguage
# -----------------------------------------------
:version 1.10
:name VICON
:units
  mass 1.0
  length 0.45
  angle deg
:documentation
   .ast/.asf automatically generated from VICON data using
   VICON BodyBuilder and BodyLanguage model FoxedUp or BRILLIANT.MOD
:root
   order TX TY TZ RX RY RZ
   axis XYZ
   position 0 0 0  
   orientation 0 0 0 
:bonedata
  begin
     id 1 
     name lhipjoint
     direction 0.627457 -0.725269 0.283342 
     length 2.53237 
     axis 0 0 0  XYZ
  end
  begin
     id 2 
     name lfemur
     direction 0.34202 -0.939693 0  
     length 7.32496  
     axis 0 0 20  XYZ
    dof rx ry rz
    limits (-160.0 20.0)
           (-70.0 70.0)
           (-60.0 70.0)
  end
  begin
     id 3 
     name ltibia
     direction 0.34202 -0.939693 0   
     length 7.69674   
     axis 0 0 20   XYZ
    dof rx
    limits (-10.0 170.0)
  end
  begin
     id 4 
     name lfoot
     direction 0.127289 -0.349722 0.928166   
     length 1.8612   
     axis -90 7.62852e-016 20   XYZ
    dof rx rz
    limits (-45.0 90.0)
           (-70.0 20.0)
  end
  begin
     id 5 
     name ltoes
     direction 1.53561e-011 -4.21864e-011 1   
     length 0.925608   
     axis -90 7.62852e-016 20   XYZ
    dof rx
    limits (-90.0 20.0)
  end
  begin
     id 6 
     name rhipjoint
     direction -0.609094 -0.738725 0.288599   
     length 2.48624  
     axis 0 0 0  XYZ 
  end
  begin
     id 7 
     name rfemur
     direction -0.34202 -0.939693 0   
     length 7.44259   
     axis 0 0 -20   XYZ
    dof rx ry rz
    limits (-160.0 20.0)
           (-70.0 70.0)
           (-70.0 60.0)
  end
  begin
     id 8 
     name rtibia
     direction -0.34202 -0.939693 0   
     length 7.7781   
     axis 0 0 -20   XYZ
    dof rx
    limits (-10.0 170.0)
 end
 begin
     id 9 
     name rfoot
     direction -0.107015 -0.294021 0.949789   
     length 2.14741  
     axis -90 -7.62852e-016 -20   XYZ
    dof rx rz
    limits (-45.0 90.0)
           (-20.0 70.0)
  end
  begin
     id 10 
     name rtoes
     direction -1.53497e-011 -4.21924e-011 1   
     length 1.0706   
     axis -90 -7.62852e-016 -20   XYZ
    dof rx
    limits (-90.0 20.0)
  end
  begin
     id 11 
     name lowerback
     direction -0.0142066 0.998112 -0.0597545   
     length 1.86627   
     axis 0 0 0   XYZ
    dof rx ry rz
    limits (-20.0 45.0)
           (-30.0 30.0)
           (-30.0 30.0)
  end
  begin
     id 12 
     name upperback
     direction 0.00547294 0.999744 0.0219437   
     length 1.86272   
     axis 0 0 0   XYZ
    dof rx ry rz
    limits (-20.0 45.0)
           (-30.0 30.0)
           (-30.0 30.0)
  end
  begin
     id 13 
     name thorax
     direction 0.0116162 0.998704 0.0495538   
     length 1.8703   
     axis 0 0 0   XYZ
    dof rx ry rz
    limits (-20.0 45.0)
           (-30.0 30.0)
           (-30.0 30.0)
  end
  begin
     id 14 
     name lowerneck
     direction -0.0106574 0.998739 0.0490586   
     length 1.8074   
     axis 0 0 0   XYZ
    dof rx ry rz
    limits (-20.0 45.0)
           (-30.0 30.0)
           (-30.0 30.0)
  end
  begin
     id 15 
     name upperneck
     direction 0.030527 0.976587 -0.212944   
     length 1.80681   
     axis 0 0 0   XYZ
    dof rx ry rz
    limits (-20.0 45.0)
           (-30.0 30.0)
           (-30.0 30.0)
  end
  begin
     id 16
     name head
     direction 0.00869225 0.997035 -0.0764531  
     length 1.8313  
     axis 0 0 0   XYZ
    dof rx ry rz
    limits (-20.0 45.0)
           (-30.0 30.0)
           (-30.0 30.0)
  end
  begin
     id 17 
     name lclavicle
     direction 0.915958 0.399447 0.0382386  
     length 3.78965  
     axis 0 0 0   XYZ
    dof ry rz
    limits (-20.0 10.0)
           (0.0 20.0)
  end
  begin
     id 18 
     name lhumerus
     direction 1 -4.48967e-011 3.19303e-027   
     length 4.78095   
     axis -180 -30 -90   XYZ
    dof rx ry rz
    limits (-60.0 90.0)
           (-90.0 90.0)
           (-90.0 90.0)
  end
  begin
     id 19
     name lradius
     direction 1 -4.48967e-011 -3.77974e-027   
     length 3.58615   
     axis -180 -30 -90   XYZ
    dof rx
    limits (-10.0 170.0)
  end
  begin
     id 20
     name lwrist
     direction 1 -4.48927e-011 1.2807e-027   
     length 1.79307   
     axis 1.91374e-015 90 90   XYZ
    dof ry
    limits (-180.0 0.0)
 end
  begin
     id 21 
     name lhand
     direction 1 -4.49036e-011 2.5614e-027   
     length 0.659812   
     axis -1.63439e-015 90 90   XYZ
    dof rx rz
    limits (-90.0 90.0)
           (-45.0 45.0)
  end
  begin
     id 22 
     name lfingers
     direction 1 -4.49052e-011 5.1228e-027   
     length 0.531957   
     axis -3.26879e-015 90 90   XYZ
    dof rx
    limits (0.0 90.0)
  end
  begin
     id 23
     name lthumb
     direction 0.707107 -6.35012e-011 0.707107   
     length 0.763787   
     axis -90 45 2.85299e-015   XYZ
    dof rx rz
    limits (-45.0 45.0)
           (-45.0 45.0)
  end
  begin
     id 24 
     name rclavicle
     direction -0.895351 0.435135 0.0948887   
     length 3.70497  
     axis 0 0 0   XYZ 
    dof ry rz
    limits (-10.0 20.0)
           (-20.0 0.0)
  end
  begin
     id 25 
     name rhumerus
     direction -1 -4.48971e-011 2.38946e-027  
     length 4.48913   
     axis -180 30 90   XYZ
    dof rx ry rz
    limits (-90.0 60.0)
           (-90.0 90.0)
           (-90.0 90.0)
  end
  begin
     id 26 
     name rradius
     direction -1 -4.4895e-011 4.38668e-027   
     length 3.7051   
     axis -180 30 90   XYZ
    dof rx
    limits (-10.0 170.0)
  end
  begin
     id 27 
     name rwrist
     direction -1 -4.49007e-011 1.2807e-027   
     length 1.85255   
     axis 1.91374e-015 -90 -90   XYZ
    dof ry
    limits (-180.0 0.0)
  end
  begin
     id 28
     name rhand
     direction -1 -4.48851e-011 2.5614e-027   
     length 0.449136   
     axis -1.63439e-015 -90 -90   XYZ
    dof rx rz
    limits (-90.0 90.0)
           (-45.0 45.0)
  end
  begin
     id 29
     name rfingers
     direction -1 -4.49128e-011 5.1228e-027   
     length 0.362105   
     axis -3.26879e-015 -90 -90   XYZ
    dof rx
    limits (0.0 90.0)
  end
  begin
     id 30
     name rthumb
     direction -0.707107 -6.34851e-011 0.707107   
     length 0.519912   
     axis -90 -45 -2.85299e-015   XYZ
    dof rx rz
    limits (-45.0 45.0)
           (-45.0 45.0)
  end
:hierarchy
  begin
    root lhipjoint rhipjoint lowerback
    lhipjoint lfemur
    lfemur ltibia
    ltibia lfoot
    lfoot ltoes
    rhipjoint rfemur
    rfemur rtibia
    rtibia rfoot
    rfoot rtoes
    lowerback upperback
    upperback thorax
    thorax lowerneck lclavicle rclavicle
    lowerneck upperneck
    upperneck head
    lclavicle lhumerus
    lhumerus lradius
    lradius lwrist
    lwrist lhand lthumb
    lhand lfingers
    rclavicle rhumerus
    rhumerus rradius
    rradius rwrist
    rwrist rhand rthumb
    rhand rfingers
  end

#!OML:ASF I:\Actors\actors\Patient Classification 2\Patient 1\Session 1\actor1.ASF
:FULLY-SPECIFIED
:DEGREES
1
root -1.01699 18.739 5.41766 1.58523 -0.25145 -3.19762
lowerback 12.2145 -0.258395 2.45411
upperback 1.03274 0.100008 1.78924
thorax -5.76883 0.00986325 0.477381
lowerneck -9.18847 -0.313802 2.32915
upperneck 21.6533 -0.457193 -1.84029
head 8.20368 -0.209393 -1.05009
rclavicle 5.06901e-015 -3.18055e-015
rhumerus -39.5748 6.45122 -90.6511
rradius 39.1184
rwrist 19.0121
rhand -8.33595 -28.9992
rfingers 7.12502
rthumb 17.5856 -58.2238
lclavicle 5.06901e-015 -3.18055e-015
lhumerus -39.5881 -4.53493 94.3737
lradius 40.0419
lwrist -0.412044
lhand -7.95721 -26.765
lfingers 7.12502
lthumb 17.95 2.42668
rfemur 5.93831 -0.158138 18.6374
rtibia -2.22639e-014
rfoot -16.0725 -11.5014
rtoes -6.64236
lfemur -7.73007 -3.56036 -9.84292
ltibia 22.6423
lfoot -18.6104 8.37439
ltoes -57.5656
2
root -1.01528 18.7405 5.41821 1.62337 -0.244437 -3.17891
lowerback 12.2473 -0.251945 2.40021
upperback 1.02668 0.103186 1.79753
thorax -5.79361 0.0126465 0.516144
lowerneck -9.2735 -0.328363 2.24624
upperneck 21.7139 -0.477419 -1.77917
head 8.23968 -0.219674 -1.01858
rclavicle 1.28713e-014 -1.80894e-014
rhumerus -39.5805 6.45918 -90.6053
rradius 39.1142
rwrist 18.9971
rhand -8.28064 -29.1044
rfingers 7.12502
rthumb 17.6388 -58.3243
lclavicle 1.28713e-014 -1.80894e-014
lhumerus -39.5369 -4.56466 94.4147
lradius 40.011
lwrist -0.33659
lhand -7.71911 -26.5651
lfingers 7.12502
lthumb 18.1791 2.6054
rfemur 5.89718 -0.166226 18.6098
rtibia -1.74931e-014
rfoot -16.0715 -11.5121
rtoes -6.56647
lfemur -7.76737 -3.57524 -9.87237
ltibia 22.6368
lfoot -18.5869 8.4119
ltoes -57.6143
3
root -1.01314 18.7411 5.41863 1.67269 -0.184672 -3.14619
lowerback 12.2599 -0.246176 2.32972
upperback 1.01556 0.102329 1.8018
thorax -5.81246 0.0138675 0.560661
lowerneck -9.33144 -0.358108 2.33048
upperneck 21.7338 -0.515099 -1.86983
head 8.25546 -0.239591 -1.06714
rclavicle -9.93923e-016 -2.06736e-014
rhumerus -39.6215 6.49001 -90.5563
rradius 39.1404
rwrist 18.9432
rhand -8.31092 -29.2349
rfingers 7.12502
rthumb 17.6097 -58.4574
lclavicle -9.93923e-016 -2.06736e-014
lhumerus -39.4599 -4.59552 94.4606
lradius 40.0289
lwrist -0.508956
lhand -7.48831 -26.0436
lfingers 7.12502
lthumb 18.4011 3.10604
rfemur 5.85427 -0.227542 18.5647
rtibia 7.95139e-015
rfoot -16.0794 -11.4875
rtoes -6.55101
lfemur -7.83503 -3.62167 -9.90915
ltibia 22.6212
lfoot -18.5366 8.40189
ltoes -57.6107
4
root -1.01074 18.741 5.41951 1.68365 -0.113756 -3.12431
lowerback 12.2698 -0.247767 2.28412
upperback 1.02187 0.0943986 1.80465
thorax -5.81146 0.0111985 0.590728
lowerneck -9.27898 -0.382492 2.42193
upperneck 21.6421 -0.546751 -1.95146
head 8.21351 -0.255318 -1.11177
rclavicle 5.46658e-016 5.56597e-015
rhumerus -39.6751 6.51487 -90.5237
rradius 39.1916
rwrist 18.9474
rhand -8.37336 -29.3165
rfingers 7.12502
rthumb 17.5496 -58.5444
lclavicle 5.46658e-016 5.56597e-015
lhumerus -39.4154 -4.64116 94.5186
lradius 40.214
lwrist -0.838493
lhand -7.40983 -25.128
lfingers 7.12502
lthumb 18.4766 4.01448
rfemur 5.8559 -0.298752 18.5304
rtibia 1.27222e-014
rfoot -16.0592 -11.4744
rtoes -6.67089
lfemur -7.86307 -3.6904 -9.93706
ltibia 22.6168
lfoot -18.5508 8.3512
ltoes -57.5229
5
root -1.0088 18.7415 5.41925 1.67515 -0.04908 -3.0947
lowerback 12.323 -0.257349 2.22228
upperback 1.02222 0.075544 1.81005
thorax -5.84094 0.00339617 0.634801
lowerneck -9.18965 -0.388209 2.46575
upperneck 21.5394 -0.552153 -1.99184
head 8.16215 -0.2584 -1.13172
rclavicle -3.52843e-015 -1.78906e-015
rhumerus -39.7251 6.49247 -90.4941
rradius 39.2554
rwrist 19.0198
rhand -8.36356 -29.3535
rfingers 7.12502
rthumb 17.559 -58.5806
lclavicle -3.52843e-015 -1.78906e-015
lhumerus -39.431 -4.69587 94.5779
lradius 40.3707
lwrist -0.91949
lhand -7.53582 -24.7235
lfingers 7.12502
lthumb 18.3554 4.43043
rfemur 5.87428 -0.363591 18.4916
rtibia -7.95139e-015
rfoot -16.0479 -11.4824
rtoes -6.70707
lfemur -7.86495 -3.73258 -9.97837
ltibia 22.6121
lfoot -18.5509 8.33767
ltoes -57.5144
6
root -1.00673 18.7424 5.41796 1.68879 0.0129738 -3.06817
lowerback 12.3722 -0.270142 2.1738
upperback 1.02242 0.0537146 1.80983
thorax -5.86833 -0.0062362 0.665955
lowerneck -9.17279 -0.387068 2.49398
upperneck 21.5017 -0.552136 -2.00691
head 8.14627 -0.257688 -1.14106
rclavicle 4.32357e-015 -2.50469e-014
rhumerus -39.7112 6.44311 -90.4623
rradius 39.2698
rwrist 19.0729
rhand -8.41424 -29.2227
rfingers 7.12502
rthumb 17.5102 -58.4541
lclavicle 4.32357e-015 -2.50469e-014
lhumerus -39.4179 -4.73508 94.6167
lradius 40.3945
lwrist -0.817618
lhand -7.61688 -24.7747
lfingers 7.12502
lthumb 18.2774 4.3866
rfemur 5.86293 -0.426318 18.4562
rtibia -1.74931e-014
rfoot -16.0656 -11.484
rtoes -6.5862
lfemur -7.89932 -3.72183 -10.0138
ltibia 22.6133
lfoot -18.5129 8.33733
ltoes -57.5961
7
root -1.00385 18.7433 5.41761 1.71991 0.0427872 -3.05798
lowerback 12.3708 -0.270286 2.14128
upperback 1.03098 0.0491698 1.81633
thorax -5.85853 -0.00747686 0.691845
lowerneck -9.21892 -0.39636 2.49883
upperneck 21.5279 -0.566818 -2.00698
head 8.16312 -0.264276 -1.14379
rclavicle -4.91992e-015 1.90833e-014
rhumerus -39.6926 6.40453 -90.4127
rradius 39.2717
rwrist 19.075
rhand -8.52005 -29.0734
rfingers 7.12502
rthumb 17.4084 -58.3138
lclavicle -4.91992e-015 1.90833e-014
lhumerus -39.3939 -4.73482 94.6484
lradius 40.4157
lwrist -0.808805
lhand -7.61548 -24.7491
lfingers 7.12502
lthumb 18.2788 4.41207
rfemur 5.82852 -0.456686 18.4322
rtibia -9.54166e-015
rfoot -16.0686 -11.4832
rtoes -6.57815
lfemur -7.94856 -3.70284 -10.0305
ltibia 22.6153
lfoot -18.4976 8.29905
ltoes -57.573
8
root -1.0012 18.744 5.41725 1.74042 0.070118 -3.05017
lowerback 12.3976 -0.257603 2.09682
upperback 1.01411 0.0619784 1.82723
thorax -5.89135 -0.000170602 0.726478
lowerneck -9.24015 -0.429355 2.47347
upperneck 21.5986 -0.61738 -1.96437
head 8.18982 -0.285788 -1.13094
rclavicle -5.81445e-015 1.59028e-015
rhumerus -39.7809 6.39358 -90.3588
rradius 39.3543
rwrist 18.977
rhand -8.55141 -29.0873
rfingers 7.12502
rthumb 17.3782 -58.3305
lclavicle -5.81445e-015 1.59028e-015
lhumerus -39.4489 -4.75281 94.6973
lradius 40.4697
lwrist -0.851951
lhand -7.62351 -24.7633
lfingers 7.12502
lthumb 18.2711 4.3986
rfemur 5.81114 -0.484334 18.4133
rtibia 1.59028e-015
rfoot -16.0532 -11.4902
rtoes -6.74626
lfemur -7.97839 -3.70567 -10.0443
ltibia 22.6107
lfoot -18.4868 8.25053
ltoes -57.4798
